<svg width="171" height="27" viewBox="0 0 171 27" fill="none" xmlns="http://www.w3.org/2000/svg">
<path d="M9.996 10.744C11.4253 10.8933 12.6093 11.2987 13.548 11.96C14.4867 12.6213 15.1693 13.4107 15.596 14.328C16.044 15.224 16.236 16.184 16.172 17.208C16.108 18.232 15.7987 19.1707 15.244 20.024C14.6893 20.8773 13.8787 21.592 12.812 22.168C11.7453 22.7227 10.4333 23 8.876 23H0.46C0.822667 22.9573 1.15333 22.8933 1.452 22.808C1.75067 22.7227 1.996 22.5733 2.188 22.36C2.40133 22.1467 2.56133 21.848 2.668 21.464C2.796 21.08 2.86 20.5573 2.86 19.896V3.704C2.86 3.04267 2.796 2.52 2.668 2.136C2.56133 1.752 2.40133 1.45333 2.188 1.24C1.996 1.02667 1.75067 0.877332 1.452 0.792C1.15333 0.706666 0.822667 0.642666 0.46 0.599998H8.012C9.31333 0.599998 10.412 0.823999 11.308 1.272C12.2253 1.69867 12.94 2.24267 13.452 2.904C13.964 3.56533 14.2733 4.30133 14.38 5.112C14.4867 5.92267 14.3907 6.712 14.092 7.48C13.8147 8.22667 13.3347 8.89867 12.652 9.496C11.9693 10.0933 11.084 10.5093 9.996 10.744ZM5.42 10.68H8.012C8.844 10.68 9.53733 10.4453 10.092 9.976C10.668 9.48533 11.1053 8.87733 11.404 8.152C11.7027 7.42667 11.852 6.63733 11.852 5.784C11.8733 4.93067 11.7453 4.14133 11.468 3.416C11.212 2.69067 10.796 2.09333 10.22 1.624C9.644 1.13333 8.91867 0.887999 8.044 0.887999H6.988C6.284 0.973332 5.84667 1.19733 5.676 1.56C5.50533 1.92267 5.42 2.57333 5.42 3.512V10.68ZM5.42 20.024C5.42 20.6213 5.44133 21.1013 5.484 21.464C5.52667 21.8053 5.644 22.072 5.836 22.264C6.028 22.456 6.316 22.584 6.7 22.648C7.084 22.6907 7.61733 22.712 8.3 22.712H8.588C9.676 22.712 10.572 22.424 11.276 21.848C12.0013 21.272 12.5347 20.5467 12.876 19.672C13.2387 18.7973 13.42 17.8587 13.42 16.856C13.42 15.832 13.228 14.8827 12.844 14.008C12.4813 13.1333 11.9267 12.408 11.18 11.832C10.4547 11.256 9.53733 10.968 8.428 10.968H5.42V20.024ZM25.0533 18.68C25.0533 20.0027 25.2453 20.9947 25.6293 21.656C26.0346 22.296 26.6426 22.744 27.4533 23H20.0613C20.8719 22.744 21.4693 22.296 21.8533 21.656C22.2586 20.9947 22.4613 20.0027 22.4613 18.68V14.328L18.7493 4.856C18.4506 4.088 18.1733 3.43733 17.9173 2.904C17.6613 2.37067 17.3946 1.944 17.1173 1.624C16.8399 1.28267 16.5306 1.03733 16.1893 0.887999C15.8479 0.717332 15.4319 0.621332 14.9413 0.599998H22.3973C21.3733 0.642666 20.7759 0.909333 20.6053 1.4C20.4559 1.89067 20.5626 2.616 20.9253 3.576L24.9253 14.04L28.5733 4.536C29.0853 3.192 29.2773 2.21067 29.1493 1.592C29.0213 0.973333 28.3706 0.642666 27.1973 0.599998H32.9253C32.4346 0.642666 31.9973 0.738666 31.6133 0.887999C31.2506 1.016 30.9093 1.22933 30.5893 1.528C30.2906 1.82667 30.0026 2.22133 29.7253 2.712C29.4693 3.18133 29.1919 3.78933 28.8933 4.536L25.0533 14.36V18.68ZM41.7725 19.896C41.7725 20.5573 41.8258 21.08 41.9325 21.464C42.0605 21.848 42.2205 22.1467 42.4125 22.36C42.6258 22.5733 42.8818 22.7227 43.1805 22.808C43.4792 22.8933 43.7992 22.9573 44.1405 23H36.7805C37.1432 22.9573 37.4738 22.8933 37.7725 22.808C38.0712 22.7227 38.3165 22.5733 38.5085 22.36C38.7218 22.1467 38.8818 21.848 38.9885 21.464C39.1165 21.08 39.1805 20.5573 39.1805 19.896V0.887999H39.1485C37.9112 0.887999 36.9298 1.112 36.2045 1.56C35.4792 1.98667 34.9138 2.488 34.5085 3.064C34.1032 3.64 33.8152 4.216 33.6445 4.792C33.4952 5.368 33.3778 5.784 33.2925 6.04L34.2205 0.599998H46.7005L47.6605 6.04C47.5752 5.784 47.4472 5.368 47.2765 4.792C47.1058 4.216 46.8178 3.64 46.4125 3.064C46.0285 2.488 45.4632 1.98667 44.7165 1.56C43.9912 1.112 43.0205 0.887999 41.8045 0.887999H41.7725V19.896ZM63.069 22.968V23H49.085C49.4477 22.9573 49.7783 22.8933 50.077 22.808C50.3757 22.7227 50.621 22.5733 50.813 22.36C51.0263 22.1467 51.1863 21.848 51.293 21.464C51.421 21.08 51.485 20.5573 51.485 19.896V3.704C51.485 3.04267 51.421 2.52 51.293 2.136C51.1863 1.752 51.0263 1.45333 50.813 1.24C50.621 1.02667 50.3757 0.877332 50.077 0.792C49.7783 0.706666 49.4477 0.642666 49.085 0.599998H62.685L63.613 6.04C63.5277 5.784 63.3997 5.368 63.229 4.792C63.0797 4.216 62.8023 3.64 62.397 3.064C61.9917 2.488 61.4263 1.98667 60.701 1.56C59.9757 1.112 58.9943 0.887999 57.757 0.887999H54.045V11.064H58.237C58.749 11.064 59.1543 10.968 59.453 10.776C59.7517 10.5627 59.9757 10.3067 60.125 10.008C60.2957 9.70933 60.413 9.38933 60.477 9.048C60.5623 8.68533 60.6263 8.35467 60.669 8.056V14.36C60.6263 14.0613 60.5623 13.7413 60.477 13.4C60.413 13.0587 60.2957 12.7387 60.125 12.44C59.9757 12.12 59.7517 11.864 59.453 11.672C59.1543 11.4587 58.749 11.352 58.237 11.352H54.045V20.024C54.045 20.6213 54.0663 21.1013 54.109 21.464C54.173 21.8053 54.301 22.072 54.493 22.264C54.685 22.456 54.973 22.584 55.357 22.648C55.7623 22.6907 56.3063 22.712 56.989 22.712H58.141C59.3783 22.712 60.3597 22.4987 61.085 22.072C61.8103 21.624 62.3757 21.112 62.781 20.536C63.1863 19.96 63.4637 19.384 63.613 18.808C63.7837 18.232 63.9117 17.816 63.997 17.56L63.069 22.968ZM78.8888 19.896C78.8888 20.5573 78.9421 21.08 79.0488 21.464C79.1768 21.848 79.3474 22.1467 79.5608 22.36C79.7741 22.5733 80.0301 22.7227 80.3288 22.808C80.6274 22.8933 80.9474 22.9573 81.2888 23H73.9288C74.2914 22.9573 74.6221 22.8933 74.9208 22.808C75.2194 22.7227 75.4648 22.5733 75.6568 22.36C75.8701 22.1467 76.0301 21.848 76.1368 21.464C76.2648 21.08 76.3288 20.5573 76.3288 19.896V3.704C76.3288 3.04267 76.2648 2.52 76.1368 2.136C76.0301 1.752 75.8701 1.45333 75.6568 1.24C75.4648 1.02667 75.2194 0.877332 74.9208 0.792C74.6221 0.706666 74.2914 0.642666 73.9288 0.599998H87.5288L88.4568 6.04C88.3714 5.784 88.2434 5.368 88.0728 4.792C87.9234 4.216 87.6461 3.64 87.2408 3.064C86.8354 2.488 86.2701 1.98667 85.5448 1.56C84.8194 1.112 83.8381 0.887999 82.6008 0.887999H78.8888V11.064H83.0808C83.5928 11.064 83.9981 10.968 84.2968 10.776C84.6168 10.5627 84.8514 10.3067 85.0008 10.008C85.1714 9.70933 85.2888 9.38933 85.3528 9.048C85.4168 8.68533 85.4701 8.35467 85.5128 8.056V14.36C85.4701 14.0613 85.4168 13.7413 85.3528 13.4C85.2888 13.0587 85.1714 12.7387 85.0008 12.44C84.8514 12.12 84.6168 11.864 84.2968 11.672C83.9981 11.4587 83.5928 11.352 83.0808 11.352H78.8888V19.896ZM112.934 11.768C112.934 13.7093 112.592 15.416 111.91 16.888C111.248 18.3387 110.363 19.5547 109.254 20.536C108.166 21.496 106.918 22.2213 105.51 22.712C104.123 23.2027 102.704 23.448 101.254 23.448C99.7818 23.448 98.3418 23.2027 96.9338 22.712C95.5471 22.2213 94.3098 21.496 93.2218 20.536C92.1338 19.5547 91.2484 18.3387 90.5658 16.888C89.9044 15.416 89.5738 13.7093 89.5738 11.768C89.5738 9.80533 89.9044 8.09867 90.5658 6.648C91.2484 5.19733 92.1338 3.98133 93.2218 3C94.3311 2.01867 95.5791 1.29333 96.9658 0.823999C98.3738 0.333333 99.8031 0.0879993 101.254 0.0879993C102.726 0.0879993 104.155 0.333333 105.542 0.823999C106.95 1.29333 108.198 2.01867 109.286 3C110.374 3.98133 111.248 5.19733 111.91 6.648C112.592 8.09867 112.934 9.80533 112.934 11.768ZM92.4858 11.768C92.4858 13.6667 92.7311 15.3307 93.2218 16.76C93.7338 18.1893 94.3951 19.384 95.2058 20.344C96.0378 21.304 96.9764 22.0293 98.0218 22.52C99.0884 22.9893 100.166 23.224 101.254 23.224C102.342 23.224 103.408 22.9893 104.454 22.52C105.52 22.0293 106.459 21.304 107.27 20.344C108.102 19.384 108.763 18.1893 109.254 16.76C109.766 15.3307 110.022 13.6667 110.022 11.768C110.022 9.848 109.766 8.17333 109.254 6.744C108.763 5.31467 108.102 4.13067 107.27 3.192C106.459 2.232 105.52 1.51733 104.454 1.048C103.408 0.557332 102.342 0.311998 101.254 0.311998C100.166 0.311998 99.0884 0.557332 98.0218 1.048C96.9764 1.51733 96.0378 2.232 95.2058 3.192C94.3951 4.13067 93.7338 5.31467 93.2218 6.744C92.7311 8.17333 92.4858 9.848 92.4858 11.768ZM141.406 25.976C140.68 26.1893 139.891 26.36 139.038 26.488C138.184 26.616 137.288 26.68 136.35 26.68C135.326 26.68 134.291 26.584 133.246 26.392C132.2 26.2 131.187 25.88 130.206 25.432C129.246 24.984 128.339 24.376 127.486 23.608C126.632 22.8613 125.886 21.9227 125.246 20.792C124.435 19.3627 123.72 18.232 123.102 17.4C122.504 16.568 121.875 16.152 121.214 16.152H119.358V19.896C119.358 20.5573 119.411 21.08 119.518 21.464C119.646 21.848 119.816 22.1467 120.03 22.36C120.243 22.5733 120.499 22.7227 120.798 22.808C121.096 22.8933 121.416 22.9573 121.758 23H114.398C114.76 22.9573 115.091 22.8933 115.39 22.808C115.688 22.7227 115.934 22.5733 116.126 22.36C116.339 22.1467 116.499 21.848 116.606 21.464C116.734 21.08 116.798 20.5573 116.798 19.896V3.704C116.798 3.04267 116.734 2.52 116.606 2.136C116.499 1.752 116.339 1.45333 116.126 1.24C115.934 1.02667 115.688 0.877332 115.39 0.792C115.091 0.706666 114.76 0.642666 114.398 0.599998H121.214C122.92 0.599998 124.35 0.951998 125.502 1.656C126.675 2.36 127.571 3.256 128.19 4.344C128.808 5.41067 129.15 6.59467 129.214 7.896C129.278 9.176 129.064 10.392 128.574 11.544C128.104 12.6747 127.358 13.6667 126.334 14.52C125.31 15.352 124.019 15.864 122.462 16.056C123.144 16.1413 123.742 16.3013 124.254 16.536C124.787 16.7707 125.267 17.08 125.694 17.464C126.12 17.8267 126.515 18.2533 126.878 18.744C127.24 19.2133 127.614 19.7467 127.998 20.344C128.744 21.496 129.544 22.4453 130.398 23.192C131.251 23.96 132.126 24.568 133.022 25.016C133.939 25.464 134.846 25.7733 135.742 25.944C136.659 26.136 137.534 26.232 138.366 26.232C138.942 26.232 139.475 26.1893 139.966 26.104C140.478 26.04 140.947 25.9547 141.374 25.848L141.406 25.976ZM119.358 15.864H121.214C122.408 15.864 123.4 15.5013 124.19 14.776C125 14.0293 125.608 13.1013 126.014 11.992C126.419 10.8827 126.622 9.67733 126.622 8.376C126.622 7.07467 126.419 5.86933 126.014 4.76C125.63 3.65067 125.032 2.73333 124.222 2.008C123.411 1.26133 122.408 0.887999 121.214 0.887999H121.15C120.83 0.887999 120.552 0.919999 120.318 0.983999C120.083 1.02667 119.891 1.144 119.742 1.336C119.614 1.528 119.518 1.80533 119.454 2.168C119.39 2.50933 119.358 2.97867 119.358 3.576V15.864ZM152.945 19.8C151.495 21.144 149.969 22.0933 148.369 22.648C146.791 23.2027 145.201 23.48 143.601 23.48C142.087 23.48 140.615 23.2453 139.185 22.776C137.756 22.2853 136.487 21.56 135.377 20.6C134.289 19.64 133.415 18.4453 132.753 17.016C132.092 15.5867 131.761 13.9227 131.761 12.024C131.761 10.104 132.103 8.408 132.785 6.936C133.468 5.464 134.364 4.23733 135.473 3.256C136.604 2.25333 137.884 1.496 139.313 0.983999C140.764 0.471999 142.257 0.216 143.793 0.216C145.201 0.216 146.588 0.439999 147.953 0.887999C149.34 1.31467 150.631 1.976 151.825 2.872L150.833 7.48C150.94 6.60533 150.855 5.76267 150.577 4.952C150.321 4.12 149.905 3.384 149.329 2.744C148.775 2.104 148.071 1.592 147.217 1.208C146.385 0.802665 145.447 0.599998 144.401 0.599998C143.079 0.557332 141.82 0.759999 140.625 1.208C139.452 1.63467 138.417 2.296 137.521 3.192C136.625 4.06667 135.921 5.16533 135.409 6.488C134.897 7.78933 134.641 9.304 134.641 11.032C134.641 13.1227 134.94 14.9147 135.537 16.408C136.135 17.9013 136.892 19.128 137.809 20.088C138.748 21.048 139.793 21.7627 140.945 22.232C142.097 22.68 143.228 22.904 144.337 22.904C145.148 22.904 145.916 22.7867 146.641 22.552C147.367 22.3173 148.007 21.9867 148.561 21.56C149.116 21.112 149.553 20.568 149.873 19.928C150.215 19.288 150.385 18.5627 150.385 17.752V15.416C150.385 14.7547 150.321 14.232 150.193 13.848C150.087 13.464 149.927 13.1653 149.713 12.952C149.521 12.7387 149.276 12.5893 148.977 12.504C148.679 12.4187 148.348 12.3547 147.985 12.312H154.737C154.183 12.3973 153.756 12.6427 153.457 13.048C153.159 13.432 152.988 14.2213 152.945 15.416V19.8ZM169.569 22.968V23H155.585C155.948 22.9573 156.278 22.8933 156.577 22.808C156.876 22.7227 157.121 22.5733 157.313 22.36C157.526 22.1467 157.686 21.848 157.793 21.464C157.921 21.08 157.985 20.5573 157.985 19.896V3.704C157.985 3.04267 157.921 2.52 157.793 2.136C157.686 1.752 157.526 1.45333 157.313 1.24C157.121 1.02667 156.876 0.877332 156.577 0.792C156.278 0.706666 155.948 0.642666 155.585 0.599998H169.185L170.113 6.04C170.028 5.784 169.9 5.368 169.729 4.792C169.58 4.216 169.302 3.64 168.897 3.064C168.492 2.488 167.926 1.98667 167.201 1.56C166.476 1.112 165.494 0.887999 164.257 0.887999H160.545V11.064H164.737C165.249 11.064 165.654 10.968 165.953 10.776C166.252 10.5627 166.476 10.3067 166.625 10.008C166.796 9.70933 166.913 9.38933 166.977 9.048C167.062 8.68533 167.126 8.35467 167.169 8.056V14.36C167.126 14.0613 167.062 13.7413 166.977 13.4C166.913 13.0587 166.796 12.7387 166.625 12.44C166.476 12.12 166.252 11.864 165.953 11.672C165.654 11.4587 165.249 11.352 164.737 11.352H160.545V20.024C160.545 20.6213 160.566 21.1013 160.609 21.464C160.673 21.8053 160.801 22.072 160.993 22.264C161.185 22.456 161.473 22.584 161.857 22.648C162.262 22.6907 162.806 22.712 163.489 22.712H164.641C165.878 22.712 166.86 22.4987 167.585 22.072C168.31 21.624 168.876 21.112 169.281 20.536C169.686 19.96 169.964 19.384 170.113 18.808C170.284 18.232 170.412 17.816 170.497 17.56L169.569 22.968Z" fill="white"/>
</svg>
