<svg width="762" height="80" viewBox="0 0 762 80" fill="none" xmlns="http://www.w3.org/2000/svg">
<g filter="url(#filter0_d_256_33)">
<path d="M84.848 34.192C86.768 39.056 87.44 43.76 86.864 48.304C86.352 52.784 84.912 56.752 82.544 60.208C80.176 63.6 77.04 66.32 73.136 68.368C69.232 70.416 64.88 71.44 60.08 71.44C56.432 71.44 52.816 70.64 49.232 69.04C45.648 67.44 42.16 65.2 38.768 62.32C35.44 59.44 32.24 56.048 29.168 52.144C26.16 48.24 23.312 43.984 20.624 39.376V39.28L37.52 13.552C42.128 6.384 42 2.8 37.136 2.8H52.688C51.536 2.86399 50.416 3.088 49.328 3.472C48.24 3.856 47.12 4.464 45.968 5.296C44.88 6.064 43.728 7.12 42.512 8.464C41.296 9.808 40.016 11.504 38.672 13.552L25.424 33.52C27.92 37.552 30.608 41.648 33.488 45.808C36.432 49.968 39.568 53.744 42.896 57.136C46.288 60.528 49.904 63.312 53.744 65.488C57.648 67.664 61.808 68.752 66.224 68.752C69.104 68.752 71.728 68.144 74.096 66.928C76.464 65.712 78.384 64.08 79.856 62.032C81.392 59.984 82.352 57.648 82.736 55.024C83.12 52.336 82.736 49.52 81.584 46.576L76.976 34.288H59.408C58.448 36.976 57.872 39.152 57.68 40.816C57.488 42.416 57.584 43.696 57.968 44.656C58.352 45.616 59.024 46.32 59.984 46.768C60.944 47.152 62.096 47.472 63.44 47.728H46.544C47.888 47.408 49.072 46.992 50.096 46.48C51.184 45.968 52.208 45.136 53.168 43.984C54.192 42.832 55.216 41.2 56.24 39.088C57.328 36.976 58.544 34.192 59.888 30.736L71.6 1.36H72.08L84.848 34.192ZM19.856 60.688C19.856 62.672 20.016 64.24 20.336 65.392C20.72 66.544 21.2 67.44 21.776 68.08C22.416 68.72 23.184 69.168 24.08 69.424C24.976 69.68 25.968 69.872 27.056 70H4.976C6.064 69.872 7.024 69.68 7.856 69.424C8.752 69.168 9.488 68.752 10.064 68.176C10.704 67.536 11.184 66.672 11.504 65.584C11.888 64.432 12.112 62.928 12.176 61.072V11.728C12.112 9.872 11.888 8.4 11.504 7.31199C11.184 6.16 10.704 5.264 10.064 4.62399C9.488 3.984 8.752 3.568 7.856 3.376C7.024 3.12 6.064 2.928 4.976 2.8H27.056C25.968 2.928 24.976 3.12 24.08 3.376C23.184 3.632 22.416 4.08 21.776 4.72C21.2 5.36 20.72 6.256 20.336 7.408C20.016 8.56 19.856 10.128 19.856 12.112V60.688ZM60.464 31.504C60.336 31.824 60.208 32.176 60.08 32.56C59.952 32.88 59.824 33.2 59.696 33.52H76.688L68.336 11.632L60.464 31.504ZM114.304 69.136C118.016 69.136 120.96 68.496 123.136 67.216C125.312 65.872 127.008 64.336 128.224 62.608C129.44 60.88 130.272 59.152 130.72 57.424C131.232 55.696 131.616 54.448 131.872 53.68L129.088 70H89.5363C90.6243 69.872 91.6163 69.68 92.5123 69.424C93.4083 69.168 94.1443 68.72 94.7203 68.08C95.3603 67.44 95.8403 66.544 96.1603 65.392C96.5443 64.24 96.7363 62.672 96.7363 60.688V12.112C96.7363 10.128 96.5443 8.56 96.1603 7.408C95.8403 6.256 95.3603 5.36 94.7203 4.72C94.1443 4.08 93.4083 3.632 92.5123 3.376C91.6163 3.12 90.6243 2.928 89.5363 2.8H111.616C110.592 2.928 109.632 3.12 108.736 3.376C107.84 3.632 107.072 4.08 106.432 4.72C105.792 5.36 105.28 6.256 104.896 7.408C104.576 8.56 104.416 10.128 104.416 12.112V61.072C104.416 62.864 104.48 64.304 104.608 65.392C104.8 66.416 105.184 67.216 105.76 67.792C106.336 68.368 107.2 68.752 108.352 68.944C109.568 69.072 111.2 69.136 113.248 69.136H114.304ZM189.378 2.8C187.394 2.992 185.73 3.312 184.386 3.75999C183.106 4.144 181.954 4.944 180.93 6.16C179.97 7.312 179.042 8.976 178.146 11.152C177.25 13.264 176.226 16.112 175.074 19.696L158.85 71.344H158.37L139.746 12.688C139.106 10.64 138.434 9.04 137.73 7.888C137.026 6.672 136.194 5.712 135.234 5.008C134.274 4.304 133.154 3.824 131.874 3.568C130.594 3.248 129.026 2.992 127.17 2.8H154.53C151.33 3.12 149.218 4.112 148.194 5.776C147.17 7.376 147.17 9.904 148.194 13.36L162.018 58.864L174.498 18.832C175.65 15.12 176.322 12.24 176.514 10.192C176.706 8.08 176.514 6.512 175.938 5.488C175.362 4.4 174.466 3.728 173.25 3.472C172.034 3.152 170.594 2.928 168.93 2.8H189.378ZM202.948 60.688C202.948 62.672 203.108 64.24 203.428 65.392C203.812 66.544 204.324 67.44 204.964 68.08C205.604 68.72 206.372 69.168 207.268 69.424C208.164 69.68 209.124 69.872 210.148 70H188.068C189.156 69.872 190.148 69.68 191.044 69.424C191.94 69.168 192.676 68.72 193.252 68.08C193.892 67.44 194.372 66.544 194.692 65.392C195.076 64.24 195.268 62.672 195.268 60.688V12.112C195.268 10.128 195.076 8.56 194.692 7.408C194.372 6.256 193.892 5.36 193.252 4.72C192.676 4.08 191.94 3.632 191.044 3.376C190.148 3.12 189.156 2.928 188.068 2.8H210.148C209.124 2.928 208.164 3.12 207.268 3.376C206.372 3.632 205.604 4.08 204.964 4.72C204.324 5.36 203.812 6.256 203.428 7.408C203.108 8.56 202.948 10.128 202.948 12.112V60.688ZM303.173 55.312C299.461 60.944 294.981 65.04 289.733 67.6C284.549 70.16 279.173 71.44 273.605 71.44C269.189 71.44 264.869 70.64 260.645 69.04C256.421 67.44 252.677 65.168 249.413 62.224C246.149 59.216 243.525 55.568 241.541 51.28C239.557 46.928 238.565 42.032 238.565 36.592C238.565 31.024 239.557 26.064 241.541 21.712C243.525 17.296 246.149 13.552 249.413 10.48C252.677 7.408 256.421 5.072 260.645 3.472C264.933 1.808 269.381 0.975996 273.989 0.975996C278.021 0.975996 282.021 1.648 285.989 2.992C290.021 4.272 293.861 6.288 297.509 9.04L294.437 23.056C294.885 19.792 294.629 16.88 293.669 14.32C292.709 11.76 291.269 9.616 289.349 7.888C287.429 6.096 285.157 4.752 282.533 3.856C279.973 2.896 277.253 2.41599 274.373 2.41599C271.109 2.41599 267.845 3.02399 264.581 4.23999C261.381 5.456 258.469 7.344 255.845 9.904C253.285 12.4 251.205 15.632 249.605 19.6C248.005 23.504 247.205 28.144 247.205 33.52C247.205 39.216 248.069 44.208 249.797 48.496C251.589 52.72 253.925 56.24 256.805 59.056C259.685 61.872 262.949 63.984 266.597 65.392C270.309 66.8 274.085 67.504 277.925 67.504C282.597 67.504 287.109 66.48 291.461 64.432C295.813 62.384 299.461 59.248 302.405 55.024L303.173 55.312ZM377.083 36.4C377.083 42.224 376.059 47.344 374.011 51.76C372.027 56.112 369.371 59.76 366.043 62.704C362.779 65.584 359.035 67.76 354.811 69.232C350.651 70.704 346.395 71.44 342.043 71.44C337.627 71.44 333.307 70.704 329.083 69.232C324.923 67.76 321.211 65.584 317.947 62.704C314.683 59.76 312.027 56.112 309.979 51.76C307.995 47.344 307.003 42.224 307.003 36.4C307.003 30.512 307.995 25.392 309.979 21.04C312.027 16.688 314.683 13.04 317.947 10.096C321.275 7.152 325.019 4.976 329.179 3.568C333.403 2.096 337.691 1.36 342.043 1.36C346.459 1.36 350.747 2.096 354.906 3.568C359.131 4.976 362.875 7.152 366.139 10.096C369.403 13.04 372.027 16.688 374.011 21.04C376.059 25.392 377.083 30.512 377.083 36.4ZM314.683 30.256C314.683 36.976 315.579 42.832 317.371 47.824C319.163 52.752 321.467 56.88 324.283 60.208C327.163 63.536 330.395 66.032 333.979 67.696C337.627 69.296 341.275 70.096 344.923 70.096C348.059 70.096 351.099 69.488 354.042 68.272C356.986 67.056 359.579 65.232 361.819 62.8C364.123 60.368 365.947 57.36 367.291 53.776C368.699 50.192 369.403 46 369.403 41.2C369.467 34.864 368.571 29.296 366.715 24.496C364.923 19.632 362.523 15.6 359.515 12.4C356.571 9.2 353.243 6.8 349.531 5.2C345.819 3.536 342.107 2.704 338.395 2.704C335.323 2.704 332.347 3.28 329.467 4.432C326.587 5.52 324.059 7.216 321.883 9.51999C319.707 11.824 317.947 14.704 316.603 18.16C315.323 21.616 314.683 25.648 314.683 30.256ZM427.595 16.912L411.947 71.152H411.083L395.435 18.064L387.659 53.872C386.827 57.712 386.411 60.688 386.411 62.8C386.475 64.912 386.859 66.48 387.563 67.504C388.331 68.528 389.355 69.168 390.635 69.424C391.915 69.68 393.387 69.872 395.051 70H373.355C375.339 69.808 377.003 69.52 378.347 69.136C379.755 68.752 380.939 67.984 381.899 66.832C382.923 65.68 383.819 64.048 384.587 61.936C385.419 59.76 386.251 56.848 387.083 53.2L398.507 1.36H398.987L415.115 57.328L431.339 1.36H431.819C432.203 2.512 432.747 4.688 433.451 7.888C434.155 11.088 434.923 14.8 435.755 19.024C436.651 23.184 437.579 27.568 438.539 32.176C439.499 36.784 440.363 41.072 441.131 45.04C441.963 48.944 442.635 52.272 443.147 55.024C443.723 57.776 444.075 59.344 444.203 59.728C445.227 63.376 446.635 65.936 448.427 67.408C450.283 68.816 452.747 69.68 455.819 70H429.035C431.915 69.744 433.995 68.88 435.275 67.408C436.555 65.872 436.875 63.472 436.235 60.208L427.595 16.912ZM470.229 60.688C470.229 62.672 470.389 64.24 470.709 65.392C471.093 66.544 471.605 67.44 472.245 68.08C472.885 68.72 473.653 69.168 474.549 69.424C475.445 69.68 476.405 69.872 477.429 70H455.349C456.437 69.872 457.429 69.68 458.325 69.424C459.221 69.168 459.957 68.72 460.533 68.08C461.173 67.44 461.653 66.544 461.973 65.392C462.357 64.24 462.549 62.672 462.549 60.688V12.112C462.549 10.128 462.357 8.56 461.973 7.408C461.653 6.256 461.173 5.36 460.533 4.72C459.957 4.08 459.221 3.632 458.325 3.376C457.429 3.12 456.437 2.928 455.349 2.8H475.797C481.173 2.8 485.621 3.952 489.141 6.256C492.725 8.56 495.381 11.44 497.109 14.896C498.901 18.352 499.797 22.096 499.797 26.128C499.797 30.16 498.901 33.904 497.109 37.36C495.317 40.816 492.629 43.696 489.045 46C485.525 48.304 481.109 49.456 475.797 49.456V48.976C479.381 48.976 482.357 47.856 484.725 45.616C487.157 43.376 488.981 40.592 490.197 37.264C491.413 33.872 492.021 30.224 492.021 26.32C492.021 22.416 491.413 18.8 490.197 15.472C489.045 12.08 487.253 9.264 484.821 7.024C482.389 4.784 479.381 3.664 475.797 3.664H475.605C474.645 3.664 473.813 3.76 473.109 3.952C472.405 4.08 471.829 4.432 471.381 5.008C470.997 5.584 470.709 6.416 470.517 7.504C470.325 8.528 470.229 9.936 470.229 11.728V60.688ZM552.481 49.936C552.545 53.52 551.969 56.656 550.753 59.344C549.601 62.032 548.065 64.272 546.145 66.064C544.225 67.856 542.017 69.2 539.521 70.096C537.089 70.992 534.561 71.44 531.937 71.44C529.377 71.44 526.849 70.992 524.353 70.096C521.857 69.2 519.649 67.856 517.729 66.064C515.809 64.272 514.273 62.032 513.121 59.344C511.969 56.656 511.393 53.52 511.393 49.936V12.112C511.393 10.128 511.201 8.56 510.817 7.408C510.497 6.256 510.017 5.36 509.377 4.72C508.801 4.08 508.065 3.632 507.169 3.376C506.273 3.12 505.281 2.928 504.193 2.8H526.369C525.281 2.928 524.289 3.12 523.393 3.376C522.497 3.632 521.729 4.08 521.089 4.72C520.513 5.36 520.033 6.256 519.649 7.408C519.329 8.56 519.169 10.128 519.169 12.112V49.936C519.169 53.136 519.617 55.952 520.513 58.384C521.409 60.752 522.593 62.736 524.065 64.336C525.601 65.872 527.297 67.024 529.153 67.792C531.073 68.56 533.025 68.944 535.009 68.944C537.057 68.944 539.073 68.56 541.057 67.792C543.041 66.96 544.801 65.744 546.337 64.144C547.937 62.544 549.217 60.56 550.177 58.192C551.137 55.824 551.617 53.072 551.617 49.936V16.912C551.617 12.944 550.945 9.68 549.601 7.12C548.321 4.56 546.593 3.12 544.417 2.8H559.585C557.473 3.12 555.745 4.56 554.401 7.12C553.121 9.68 552.481 12.944 552.481 16.912V49.936ZM589.411 60.688C589.411 62.672 589.571 64.24 589.891 65.392C590.275 66.544 590.755 67.44 591.331 68.08C591.971 68.72 592.739 69.168 593.635 69.424C594.531 69.68 595.491 69.872 596.515 70H574.435C575.523 69.872 576.515 69.68 577.411 69.424C578.307 69.168 579.043 68.72 579.619 68.08C580.259 67.44 580.739 66.544 581.059 65.392C581.443 64.24 581.635 62.672 581.635 60.688V3.664H581.539C577.827 3.664 574.883 4.336 572.707 5.68C570.531 6.96 568.835 8.464 567.619 10.192C566.403 11.92 565.539 13.648 565.027 15.376C564.579 17.104 564.227 18.352 563.971 19.12L566.755 2.8H604.195L607.075 19.12C606.819 18.352 606.435 17.104 605.923 15.376C605.411 13.648 604.547 11.92 603.331 10.192C602.179 8.464 600.483 6.96 598.243 5.68C596.067 4.336 593.155 3.664 589.507 3.664H589.411V60.688ZM653.301 69.904V70H611.349C612.437 69.872 613.429 69.68 614.325 69.424C615.221 69.168 615.957 68.72 616.533 68.08C617.173 67.44 617.653 66.544 617.973 65.392C618.357 64.24 618.549 62.672 618.549 60.688V12.112C618.549 10.128 618.357 8.56 617.973 7.408C617.653 6.256 617.173 5.36 616.533 4.72C615.957 4.08 615.221 3.632 614.325 3.376C613.429 3.12 612.437 2.928 611.349 2.8H652.149L654.933 19.12C654.677 18.352 654.293 17.104 653.781 15.376C653.333 13.648 652.501 11.92 651.285 10.192C650.069 8.464 648.373 6.96 646.197 5.68C644.021 4.336 641.077 3.664 637.365 3.664H626.229V34.192H638.805C640.341 34.192 641.557 33.904 642.453 33.328C643.349 32.688 644.021 31.92 644.469 31.024C644.981 30.128 645.333 29.168 645.525 28.144C645.781 27.056 645.973 26.064 646.101 25.168V44.08C645.973 43.184 645.781 42.224 645.525 41.2C645.333 40.176 644.981 39.216 644.469 38.32C644.021 37.36 643.349 36.592 642.453 36.016C641.557 35.376 640.341 35.056 638.805 35.056H626.229V61.072C626.229 62.864 626.293 64.304 626.421 65.392C626.613 66.416 626.997 67.216 627.573 67.792C628.149 68.368 629.013 68.752 630.165 68.944C631.381 69.072 633.013 69.136 635.061 69.136H638.517C642.229 69.136 645.173 68.496 647.349 67.216C649.525 65.872 651.221 64.336 652.437 62.608C653.653 60.88 654.485 59.152 654.933 57.424C655.445 55.696 655.829 54.448 656.085 53.68L653.301 69.904ZM757.016 50.224C757.016 52.912 756.504 55.472 755.48 57.904C754.456 60.272 752.952 62.352 750.968 64.144C748.984 65.936 746.552 67.376 743.672 68.464C740.792 69.488 737.464 70 733.688 70C730.424 70 727.192 69.392 723.992 68.176C720.856 66.96 717.752 65.488 714.68 63.76C711.672 61.968 708.728 60.048 705.848 58C702.968 55.952 700.152 54.128 697.4 52.528C694.712 50.864 692.088 49.584 689.528 48.688C687.032 47.792 684.632 47.568 682.328 48.016V47.728C686.104 47.024 689.208 45.424 691.64 42.928C694.072 40.432 695.864 37.52 697.016 34.192C698.232 30.8 698.776 27.248 698.648 23.536C698.584 19.76 697.912 16.304 696.632 13.168C695.352 9.968 693.496 7.344 691.064 5.296C688.696 3.248 685.784 2.224 682.328 2.224H682.136C681.176 2.224 680.344 2.32 679.64 2.512C678.936 2.64 678.36 2.992 677.912 3.568C677.528 4.144 677.24 4.976 677.048 6.064C676.856 7.088 676.76 8.496 676.76 10.288V59.248C676.76 61.232 676.92 62.8 677.24 63.952C677.624 65.104 678.136 66 678.776 66.64C679.416 67.28 680.184 67.728 681.08 67.984C681.976 68.24 682.936 68.432 683.96 68.56H661.88C662.968 68.432 663.96 68.24 664.856 67.984C665.752 67.728 666.488 67.28 667.064 66.64C667.704 66 668.184 65.104 668.504 63.952C668.888 62.8 669.08 61.232 669.08 59.248V10.672C669.08 8.688 668.888 7.12 668.504 5.96799C668.184 4.81599 667.704 3.91999 667.064 3.27999C666.488 2.64 665.752 2.192 664.856 1.936C663.96 1.67999 662.968 1.488 661.88 1.36H682.328C687.128 1.36 691.256 2.288 694.712 4.144C698.232 5.936 700.984 8.272 702.968 11.152C704.952 14.032 706.2 17.264 706.712 20.848C707.224 24.368 706.904 27.824 705.752 31.216C704.6 34.544 702.584 37.616 699.704 40.432C696.888 43.184 693.176 45.264 688.568 46.672C692.344 46.352 695.896 46.64 699.224 47.536C702.552 48.432 705.688 49.648 708.632 51.184C711.576 52.656 714.392 54.352 717.08 56.272C719.768 58.128 722.36 59.888 724.856 61.552C727.416 63.152 729.912 64.496 732.344 65.584C734.776 66.672 737.24 67.216 739.736 67.216C742.296 67.216 744.376 66.928 745.976 66.352C747.64 65.712 748.92 64.88 749.816 63.856C750.776 62.768 751.416 61.52 751.736 60.112C752.12 58.704 752.312 57.2 752.312 55.6C752.312 52.336 751.416 49.552 749.624 47.248C747.832 44.88 745.592 42.8 742.904 41.008C740.216 39.152 737.272 37.424 734.072 35.824C730.936 34.16 728.024 32.4 725.336 30.544C722.648 28.624 720.408 26.512 718.616 24.208C716.824 21.84 715.928 18.992 715.928 15.664C715.928 12.976 716.44 10.672 717.464 8.752C718.552 6.768 719.96 5.168 721.688 3.952C723.48 2.672 725.496 1.744 727.736 1.168C729.976 0.591999 732.28 0.303999 734.648 0.303999C737.848 0.303999 740.92 0.783998 743.864 1.744C746.808 2.704 749.24 4.016 751.16 5.68L749.816 17.776C749.816 14.896 749.4 12.432 748.568 10.384C747.736 8.272 746.648 6.544 745.304 5.2C743.96 3.856 742.424 2.864 740.696 2.224C738.968 1.584 737.208 1.264 735.416 1.264C733.752 1.264 732.12 1.52 730.52 2.032C728.984 2.544 727.608 3.312 726.392 4.336C725.24 5.36 724.28 6.576 723.512 7.984C722.808 9.392 722.456 11.024 722.456 12.88C722.456 15.568 723.288 17.936 724.952 19.984C726.68 21.968 728.824 23.792 731.384 25.456C733.944 27.12 736.728 28.752 739.736 30.352C742.744 31.888 745.528 33.584 748.088 35.44C750.648 37.296 752.76 39.408 754.424 41.776C756.152 44.144 757.016 46.96 757.016 50.224Z" fill="white"/>
</g>
<defs>
<filter id="filter0_d_256_33" x="0.976074" y="0.303986" width="760.04" height="79.136" filterUnits="userSpaceOnUse" color-interpolation-filters="sRGB">
<feFlood flood-opacity="0" result="BackgroundImageFix"/>
<feColorMatrix in="SourceAlpha" type="matrix" values="0 0 0 0 0 0 0 0 0 0 0 0 0 0 0 0 0 0 127 0" result="hardAlpha"/>
<feOffset dy="4"/>
<feGaussianBlur stdDeviation="2"/>
<feComposite in2="hardAlpha" operator="out"/>
<feColorMatrix type="matrix" values="0 0 0 0 0 0 0 0 0 0 0 0 0 0 0 0 0 0 0.25 0"/>
<feBlend mode="normal" in2="BackgroundImageFix" result="effect1_dropShadow_256_33"/>
<feBlend mode="normal" in="SourceGraphic" in2="effect1_dropShadow_256_33" result="shape"/>
</filter>
</defs>
</svg>
